# File created by Blade
# Date/Time:  Tue Jan 27 18:09:10 2015
# Frame Rate: 120.000 fps
#------------------------------------------------------
:FULLY-SPECIFIED
:DEGREES
2823
root -1.174819 31.881082 -6.537647 8.004683 -2.332420 1.563374
Spine -4.131146 -20.891347 -6.259334
Head -4.737470 -60.921413 16.243782
LeftShoulder -14.745442 19.179171 6.174466
LeftArm 21.811877 34.531485 -72.415676
LeftForeArm -2.773328 -0.000000 18.357411
LeftHand -11.747513 -0.000000 -0.454204
LeftHandThumb1 -26.253704 0.000000 33.147579
RightShoulder -13.302483 3.335139 -35.535175
RightArm -3.369405 48.766020 31.770021
RightForeArm 21.993698 -0.000000 15.099330
RightHand -17.866265 0.000000 -5.161241
RightHandThumb1 -24.326973 -0.000000 -32.862282
LeftUpLeg -2.149060 4.597223 -0.940983
LeftLeg -0.290162 -0.000000 0.000000
LeftFoot -20.196105 20.117056 -25.353299
LeftToeBase 8.853862 -0.000000 -0.000000
RightUpLeg -3.170822 0.110186 -3.299331
RightLeg -2.205830 -0.000000 0.000000
RightFoot -13.215821 -9.098070 9.429426
RightToeBase 4.571598 -0.000000 -0.000000
2824
root -1.179325 31.880682 -6.540890 8.027884 -2.318737 1.548278
Spine -4.138127 -20.853121 -6.270858
Head -4.957416 -60.949814 16.443115
LeftShoulder -14.744626 19.194240 6.265275
LeftArm 21.805552 34.477069 -72.551138
LeftForeArm -2.724270 -0.000000 18.418448
LeftHand -11.744592 -0.000000 -0.264075
LeftHandThumb1 -26.253704 0.000000 33.147579
RightShoulder -13.235432 3.380510 -35.569209
RightArm -2.770126 48.175836 32.375325
RightForeArm 22.153029 -0.000000 12.776829
RightHand -18.952634 -0.000000 -5.917139
RightHandThumb1 -24.326973 -0.000000 -32.862282
LeftUpLeg -2.180095 4.613508 -0.919161
LeftLeg -0.288526 -0.000000 0.000000
LeftFoot -20.176852 20.128221 -25.305004
LeftToeBase 8.749895 -0.000000 -0.000000
RightUpLeg -3.194852 0.133489 -3.277683
RightLeg -2.208490 -0.000000 0.000000
RightFoot -13.213156 -9.122216 9.431492
RightToeBase 4.554735 -0.000000 -0.000000
2825
root -1.184120 31.880290 -6.544581 8.043387 -2.292491 1.546675
Spine -4.132726 -20.813393 -6.301936
Head -5.214753 -60.995567 16.685114
LeftShoulder -14.712311 19.188218 6.385218
LeftArm 21.769821 34.457784 -72.687184
LeftForeArm -2.664385 0.000000 18.521027
LeftHand -11.831150 -0.000000 -0.178233
LeftHandThumb1 -26.253704 0.000000 33.147579
RightShoulder -13.264284 3.674223 -35.660476
RightArm -2.288424 47.462369 32.935436
RightForeArm 22.381320 -0.000000 10.574596
RightHand -19.959384 0.000000 -6.947964
RightHandThumb1 -24.326973 -0.000000 -32.862282
LeftUpLeg -2.207742 4.600749 -0.907726
LeftLeg -0.282322 -0.000000 0.000000
LeftFoot -20.160104 20.134413 -25.257907
LeftToeBase 8.748005 -0.000000 -0.000000
RightUpLeg -3.214414 0.132048 -3.266535
RightLeg -2.203370 -0.000000 0.000000
RightFoot -13.218391 -9.145525 9.410611
RightToeBase 4.526531 -0.000000 -0.000000
2826
root -1.187403 31.880458 -6.547169 8.047633 -2.259264 1.552604
Spine -4.116161 -20.770986 -6.328999
Head -5.531478 -61.062602 16.954986
LeftShoulder -14.691665 19.167510 6.489247
LeftArm 21.753282 34.437325 -72.816536
LeftForeArm -2.602972 -0.000000 18.576769
LeftHand -11.776393 -0.000000 -0.235345
LeftHandThumb1 -26.253704 0.000000 33.147579
RightShoulder -13.259649 3.708888 -35.708268
RightArm -1.812121 47.043474 33.579391
RightForeArm 22.722413 -0.000000 8.708441
RightHand -21.182592 -0.000000 -7.899971
RightHandThumb1 -24.326973 -0.000000 -32.862282
LeftUpLeg -2.218776 4.570034 -0.909595
LeftLeg -0.282097 -0.000000 0.000000
LeftFoot -20.190811 20.136308 -25.334685
LeftToeBase 8.795569 -0.000000 -0.000000
RightUpLeg -3.228725 0.100864 -3.264380
RightLeg -2.179241 -0.000000 0.000000
RightFoot -13.236304 -9.120966 9.422865
RightToeBase 4.553098 -0.000000 -0.000000
